<?xml version="1.0" standalone="no"?><!DOCTYPE svg PUBLIC "-//W3C//DTD SVG 1.1//EN" "http://www.w3.org/Graphics/SVG/1.1/DTD/svg11.dtd"><svg t="1724145077255" class="icon" viewBox="0 0 1024 1024" version="1.1" xmlns="http://www.w3.org/2000/svg" p-id="20075" data-spm-anchor-id="a313x.search_index.0.i40.97003a81qSIDzP" xmlns:xlink="http://www.w3.org/1999/xlink" width="256" height="256"><path d="M870.4 102.4h-214.016a153.6 153.6 0 0 0-288.768 0H153.6a102.4 102.4 0 0 0-102.4 102.4v716.8a102.4 102.4 0 0 0 102.4 102.4h716.8a102.4 102.4 0 0 0 102.4-102.4V204.8a102.4 102.4 0 0 0-102.4-102.4z m-358.4 0a51.2 51.2 0 1 1-51.2 51.2 51.2 51.2 0 0 1 51.2-51.2z m68.096 768H239.104C220.16 870.4 204.8 847.36 204.8 819.2s15.36-51.2 34.304-51.2h341.504c18.944 0 34.304 23.04 34.304 51.2s-15.872 51.2-34.816 51.2zM768 665.6H256a51.2 51.2 0 0 1 0-102.4h512a51.2 51.2 0 0 1 0 102.4z" fill="#f6f5f5" p-id="20076" data-spm-anchor-id="a313x.search_index.0.i35.97003a81qSIDzP" class="selected"></path></svg>