<?xml version="1.0" standalone="no"?><!DOCTYPE svg PUBLIC "-//W3C//DTD SVG 1.1//EN" "http://www.w3.org/Graphics/SVG/1.1/DTD/svg11.dtd"><svg t="1724145174066" class="icon" viewBox="0 0 1024 1024" version="1.1" xmlns="http://www.w3.org/2000/svg" p-id="21292" xmlns:xlink="http://www.w3.org/1999/xlink" width="256" height="256"><path d="M992 659.2h-142.08V293.12c0-17.92-14.08-32-32-32H625.28V32c0-17.92-14.08-32-32-32H32C14.08 0 0 14.08 0 32v480c0 17.92 14.08 32 32 32h561.28c17.92 0 32-14.08 32-32V325.12h160.64V659.2h-142.08c-17.92 0-32 14.08-32 32v118.4H415.36V691.2c0-17.92-14.08-32-32-32H32c-17.92 0-32 14.08-32 32v300.8c0 17.92 14.08 32 32 32h351.36c17.92 0 32-14.08 32-32v-118.4h195.84V992c0 17.92 14.08 32 32 32H992c17.92 0 32-14.08 32-32v-300.8c0-17.92-14.08-32-32-32z" p-id="21293" data-spm-anchor-id="a313x.search_index.0.i43.97003a81qSIDzP" class="selected" fill="#f6f5f5"></path></svg>