<?xml version="1.0" standalone="no"?><!DOCTYPE svg PUBLIC "-//W3C//DTD SVG 1.1//EN" "http://www.w3.org/Graphics/SVG/1.1/DTD/svg11.dtd"><svg t="1724144646921" class="icon" viewBox="0 0 1024 1024" version="1.1" xmlns="http://www.w3.org/2000/svg" p-id="13308" data-spm-anchor-id="a313x.search_index.0.i24.97003a81qSIDzP" xmlns:xlink="http://www.w3.org/1999/xlink" width="256" height="256"><path d="M732.16 706.56c-10.24 15.36-20.48 35.84-30.72 51.2-40.96 56.32-102.4 107.52-194.56 138.24-128-35.84-199.68-128-235.52-209.92-10.24-20.48-20.48-46.08-25.6-66.56-20.48-10.24-40.96-25.6-61.44-35.84 5.12 20.48 10.24 46.08 20.48 71.68 35.84 112.64 117.76 245.76 296.96 291.84h10.24c128-35.84 204.8-112.64 250.88-194.56 10.24-20.48 20.48-35.84 30.72-56.32-20.48 5.12-40.96 5.12-61.44 10.24z" fill="#f9f7f7" p-id="13309" data-spm-anchor-id="a313x.search_index.0.i22.97003a81qSIDzP" class=""></path><path d="M506.88 829.44c235.52-66.56 235.52-337.92 235.52-337.92V296.96c-87.04-15.36-163.84-46.08-235.52-97.28-71.68 51.2-153.6 87.04-240.64 97.28v194.56s0 271.36 240.64 337.92z" fill="#ffffff" p-id="13310" data-spm-anchor-id="a313x.search_index.0.i26.97003a81qSIDzP" class=""></path><path d="M332.8 384L281.6 460.8h-15.36V384zM517.12 384L465.92 460.8H322.56l51.2-76.8zM701.44 384l-51.2 76.8H506.88l51.2-76.8zM742.4 384V460.8h-51.2z" fill="#edecec" p-id="13311" data-spm-anchor-id="a313x.search_index.0.i25.97003a81qSIDzP" class=""></path><path d="M839.68 209.92v276.48s0 20.48-5.12 51.2c-5.12 40.96-15.36 97.28-40.96 158.72-20.48 5.12-40.96 10.24-61.44 10.24 56.32-107.52 56.32-215.04 56.32-220.16V250.88c-102.4-20.48-199.68-61.44-281.6-117.76-81.92 61.44-179.2 97.28-281.6 117.76v235.52c0 5.12 0 61.44 20.48 133.12-20.48-10.24-40.96-25.6-61.44-35.84-10.24-56.32-10.24-92.16-10.24-92.16V209.92l20.48-5.12c107.52-15.36 209.92-61.44 296.96-122.88l15.36-10.24 15.36 10.24C609.28 143.36 711.68 189.44 819.2 204.8l20.48 5.12z" fill="#f9f7f7" p-id="13312" data-spm-anchor-id="a313x.search_index.0.i23.97003a81qSIDzP" class=""></path><path d="M947.2 634.88c-10.24 61.44-81.92 102.4-184.32 117.76-20.48 5.12-40.96 5.12-66.56 5.12h-46.08c-51.2 0-112.64-5.12-174.08-15.36-76.8-15.36-148.48-35.84-209.92-61.44-20.48-5.12-40.96-15.36-61.44-25.6-81.92-46.08-138.24-102.4-128-163.84 10.24-51.2 30.72-81.92 97.28-102.4v56.32c-35.84 10.24-40.96 25.6-46.08 51.2-5.12 25.6 15.36 56.32 56.32 81.92 15.36 10.24 35.84 25.6 61.44 35.84 61.44 30.72 143.36 61.44 245.76 76.8 92.16 15.36 174.08 20.48 240.64 10.24 20.48-5.12 40.96-5.12 61.44-10.24 61.44-15.36 97.28-40.96 102.4-71.68 0-25.6-20.48-56.32-61.44-87.04 5.12-30.72 5.12-51.2 5.12-51.2 92.16 56.32 112.64 112.64 107.52 153.6z" fill="#edecec" p-id="13313" data-spm-anchor-id="a313x.search_index.0.i32.97003a81qSIDzP" class=""></path></svg>